<svg width="22" height="21" viewBox="0 0 22 21" fill="none" xmlns="http://www.w3.org/2000/svg">
<path d="M11.1426 0C8.29509 0 7.92858 0.0140966 6.81495 0.0563865C5.70131 0.112773 4.9401 0.281933 4.26346 0.549768C3.57272 0.817604 2.98066 1.17002 2.4027 1.76208C1.82474 2.34004 1.45823 2.9321 1.19039 3.62283C0.936654 4.28537 0.753398 5.06069 0.697012 6.17432C0.640625 7.28795 0.640625 7.65447 0.640625 10.502C0.640625 13.3495 0.654722 13.716 0.697012 14.8296C0.753398 15.9433 0.922558 16.7045 1.19039 17.3811C1.45823 18.0719 1.81064 18.6639 2.4027 19.2419C2.99476 19.8199 3.57272 20.1864 4.26346 20.4542C4.926 20.7079 5.70131 20.8912 6.81495 20.9476C7.92858 21.004 8.29509 21.004 11.1426 21.004C13.9901 21.004 14.3566 20.9899 15.4703 20.9476C16.5839 20.8912 17.3451 20.722 18.0218 20.4542C18.7125 20.1864 19.3046 19.834 19.8825 19.2419C20.4605 18.6639 20.827 18.0719 21.0948 17.3811C21.3486 16.7186 21.5318 15.9433 21.5882 14.8296C21.6446 13.716 21.6446 13.3495 21.6446 10.502C21.6446 7.65447 21.6305 7.28795 21.5882 6.17432C21.5318 5.06069 21.3627 4.29947 21.0948 3.62283C20.827 2.9321 20.4746 2.34004 19.8825 1.76208C19.3046 1.18412 18.7125 0.817604 18.0218 0.549768C17.3592 0.296029 16.5839 0.112773 15.4703 0.0563865C14.3425 0.0140966 13.9901 0 11.1426 0Z" fill="black"/>
<path fill-rule="evenodd" clip-rule="evenodd" d="M5.75781 10.4865C5.75781 7.51208 8.16833 5.10156 11.1427 5.10156C14.1171 5.10156 16.5276 7.51208 16.5276 10.4865C16.5276 13.4609 14.1171 15.8714 11.1427 15.8714C8.16833 15.8714 5.75781 13.4609 5.75781 10.4865ZM7.64545 10.4994C7.64545 12.4306 9.21017 13.9953 11.1414 13.9953C13.0726 13.9953 14.6374 12.4306 14.6374 10.4994C14.6374 8.56814 13.0726 7.00342 11.1414 7.00342C9.21017 7.00342 7.64545 8.56814 7.64545 10.4994Z" fill="white"/>
<path d="M16.74 5.05559C17.4328 5.05559 17.9946 4.49388 17.9946 3.80099C17.9946 3.10809 17.4328 2.54639 16.74 2.54639C16.0471 2.54639 15.4854 3.10809 15.4854 3.80099C15.4854 4.49388 16.0471 5.05559 16.74 5.05559Z" fill="white"/>
</svg>
