<svg width="26" height="22" viewBox="0 0 26 22" fill="none" xmlns="http://www.w3.org/2000/svg">
<path fill-rule="evenodd" clip-rule="evenodd" d="M1.57544 8.60763L23.8674 0.172408C24.8927 -0.293626 25.8092 0.172408 25.4209 1.72586L21.7858 19.7458C21.5062 21.0197 20.745 21.3304 19.6731 20.74L13.8632 16.4525C12.4962 17.7885 11.6262 18.6274 11.067 19.1555C11.0362 19.1815 11.0066 19.2066 10.9781 19.2307C10.5476 19.5955 10.3701 19.7458 9.93299 19.7458C9.48249 19.7458 9.28054 19.4662 9.01645 18.7516L6.8727 12.1961L1.29582 10.4562C0.394824 10.1611 0.363756 8.96492 1.57544 8.60763ZM20.4679 3.82308L7.77623 11.7923L9.93552 18.41L10.4792 13.6719L21.0116 4.19591C21.2912 3.86968 21.0893 3.40365 20.4679 3.82308Z" fill="black"/>
</svg>
