<svg width="28" height="17" viewBox="0 0 28 17" fill="none" xmlns="http://www.w3.org/2000/svg">
<path fill-rule="evenodd" clip-rule="evenodd" d="M13.612 16.4124H15.2461C15.5245 16.3822 15.7868 16.266 15.9973 16.0796C16.1503 15.8573 16.2288 15.5914 16.2214 15.3207C16.2214 15.3207 16.195 13.0043 17.2098 12.6581C18.2245 12.312 19.516 14.8947 20.8866 15.8932C21.3978 16.322 22.0568 16.5279 22.7184 16.4657L26.3821 16.4124C26.3821 16.4124 28.3062 16.2926 27.3969 14.7083C26.6799 13.4553 25.7574 12.3344 24.6689 11.3934C22.3626 9.15677 22.6789 9.51622 25.4464 5.6421C27.1333 3.28568 27.8054 1.83455 27.5945 1.22215C27.2204 0.839538 26.6776 0.678551 26.1581 0.796128L22.02 0.822754C21.8389 0.794392 21.6536 0.827148 21.4928 0.915946C21.332 1.0364 21.2048 1.19695 21.1238 1.38191C20.7 2.54667 20.1889 3.67712 19.5951 4.76344C17.7633 8.03847 17.0253 8.21154 16.7222 8.01184C16.0237 7.53257 16.195 6.10806 16.195 5.08295C16.195 1.91443 16.6563 0.583118 15.312 0.236977C14.6779 0.0838257 14.0264 0.0166697 13.3748 0.03728C12.2194 -0.0705743 11.0544 0.0561689 9.94833 0.410047C9.4739 0.649684 9.11808 1.18221 9.34211 1.22215C9.81237 1.2704 10.2464 1.49914 10.5545 1.86118C10.8394 2.47259 10.9793 3.14266 10.9631 3.81821C10.9631 3.81821 11.2135 7.55919 10.3964 8.02515C9.8429 8.34467 9.07854 7.69232 7.43121 4.7235C6.87815 3.68572 6.38959 2.61416 5.96838 1.51504C5.89117 1.33136 5.77406 1.16756 5.62573 1.03576C5.43823 0.898539 5.22164 0.807371 4.99316 0.769502L1.06592 0.796128C0.774352 0.794679 0.490926 0.893247 0.262026 1.0757C0.153094 1.30552 0.143548 1.57072 0.235669 1.80793C0.235669 1.80793 3.31947 9.35646 6.79863 13.164C8.50642 15.1799 10.9859 16.3621 13.612 16.4124Z" fill="black"/>
</svg>
